<?xml version="1.0" standalone="no"?>
<!DOCTYPE svg PUBLIC "-//W3C//DTD SVG 20010904//EN"
 "http://www.w3.org/TR/2001/REC-SVG-20010904/DTD/svg10.dtd">
<svg version="1.0" xmlns="http://www.w3.org/2000/svg"
 width="565.000000pt" height="565.000000pt" viewBox="0 0 565.000000 565.000000"
 preserveAspectRatio="xMidYMid meet">
<metadata>
Created by potrace 1.11, written by Peter Selinger 2001-2013
</metadata>
<g transform="translate(0.000000,565.000000) scale(0.100000,-0.100000)"
fill="#000000" stroke="none">
<path d="M1228 5390 c-649 -438 -1086 -1144 -1205 -1945 -27 -185 -25 -611 5
-800 79 -509 293 -988 614 -1377 100 -121 309 -327 423 -418 454 -361 1021
-577 1598 -609 519 -29 1017 79 1460 315 545 291 953 705 1223 1239 382 758
402 1642 55 2425 -199 447 -541 859 -959 1153 -53 37 -102 66 -109 65 -7 -2
-102 -145 -212 -318 -197 -311 -199 -315 -178 -330 183 -127 339 -267 458
-409 298 -356 457 -774 476 -1251 18 -486 -140 -965 -447 -1350 -77 -96 -255
-273 -345 -341 -486 -371 -1082 -509 -1680 -388 -602 122 -1138 534 -1415
1089 -72 144 -115 259 -155 414 -179 698 22 1437 530 1950 90 91 217 196 305
253 32 21 59 40 59 43 2 15 -398 635 -411 638 -8 2 -49 -20 -90 -48z"/>
<path d="M2729 3575 c-261 -64 -423 -294 -406 -579 9 -167 74 -304 185 -391
110 -87 224 -125 372 -125 110 0 191 19 281 66 64 34 164 121 160 140 -1 5
-47 48 -103 96 l-101 87 -36 -31 c-57 -51 -117 -72 -196 -72 -52 0 -80 5 -111
21 -159 84 -193 316 -65 444 45 46 120 79 176 79 42 0 123 -30 165 -62 24 -18
49 -37 56 -42 8 -7 42 16 116 79 56 49 105 91 108 93 3 2 -21 28 -53 57 -68
62 -169 118 -253 140 -71 18 -218 18 -295 0z"/>
<path d="M1665 3546 c-8 -18 -95 -256 -194 -527 -99 -272 -182 -502 -186 -511
-7 -17 4 -18 148 -18 l156 0 28 88 28 87 169 0 169 0 30 -87 29 -88 153 0 154
0 -30 83 c-16 45 -105 289 -197 542 l-167 460 -138 3 -138 3 -14 -35z m230
-588 l14 -48 -96 0 c-80 0 -94 2 -89 15 3 8 24 76 48 152 l43 136 32 -104 c18
-57 40 -125 48 -151z"/>
<path d="M3736 3571 c-5 -7 -243 -660 -382 -1044 l-13 -38 156 3 156 3 26 85
27 85 170 3 170 2 27 -90 27 -90 156 0 c145 0 156 1 149 18 -4 9 -90 246 -191
525 -101 280 -189 518 -195 528 -9 17 -22 19 -144 19 -73 0 -136 -4 -139 -9z
m188 -511 c25 -79 44 -146 42 -147 -2 -2 -44 -2 -93 -1 l-90 3 46 147 c25 81
46 146 48 145 1 -2 23 -68 47 -147z"/>
</g>
</svg>
