<?xml version="1.0" standalone="no"?>
<!DOCTYPE svg PUBLIC "-//W3C//DTD SVG 20010904//EN"
 "http://www.w3.org/TR/2001/REC-SVG-20010904/DTD/svg10.dtd">
<svg version="1.0" xmlns="http://www.w3.org/2000/svg"
 width="109.000000pt" height="109.000000pt" viewBox="0 0 109.000000 109.000000"
 preserveAspectRatio="xMidYMid meet">
<metadata>
Created by potrace 1.11, written by Peter Selinger 2001-2013
</metadata>
<g transform="translate(0.000000,109.000000) scale(0.100000,-0.100000)"
fill="#000000" stroke="none">
<path d="M204 1022 c-79 -57 -144 -148 -181 -252 -33 -94 -33 -262 0 -353 63
-174 190 -295 362 -346 99 -30 247 -26 340 7 173 63 313 223 351 401 19 91 17
154 -6 245 -24 95 -57 158 -121 230 -44 49 -115 104 -123 95 -2 -2 -20 -30
-40 -62 l-36 -58 55 -50 c36 -33 66 -73 87 -117 31 -62 33 -73 33 -172 0 -95
-3 -110 -28 -163 -57 -114 -165 -195 -295 -219 -165 -31 -341 63 -416 222 -28
59 -31 74 -31 165 0 90 3 106 29 160 17 35 54 84 89 118 l59 58 -39 59 c-21
33 -41 60 -44 60 -3 0 -24 -13 -45 -28z"/>
<path d="M230 680 c0 -16 7 -20 30 -20 l30 0 0 -70 c0 -68 1 -70 25 -70 24 0
25 2 25 70 l0 70 30 0 c23 0 30 4 30 20 0 18 -7 20 -85 20 -78 0 -85 -2 -85
-20z"/>
<path d="M437 676 c-21 -19 -27 -34 -27 -66 0 -61 37 -92 104 -88 44 3 51 6
54 25 3 20 0 21 -32 16 -44 -7 -66 9 -66 47 0 38 22 54 66 47 32 -5 35 -4 32
16 -3 19 -10 22 -54 25 -42 2 -54 -1 -77 -22z"/>
<path d="M626 623 c-16 -43 -31 -84 -33 -90 -3 -9 4 -13 21 -13 15 0 29 7 32
15 8 20 70 20 82 -1 5 -9 19 -14 34 -12 l25 3 -35 88 c-32 84 -35 87 -66 87
-30 0 -33 -3 -60 -77z m77 -13 c4 -15 0 -20 -15 -20 -14 0 -18 5 -14 16 3 9 6
20 6 25 0 17 17 1 23 -21z"/>
</g>
</svg>
