<svg xmlns="http://www.w3.org/2000/svg" viewBox="0 0 495.33334 188.66667" height="188.667" width="495.333"><g fill="#fff"><path d="M65.563 117.084h-8.378v-45.64h31.898v7.742h-23.52v11.077H86.21v7.74H65.563v19.081m57.319-32.874c0-4.346-3.65-5.657-8.378-5.657s-8.379 1.311-8.379 5.657c0 5.183 4.07 6.015 8.38 6.015 4.308 0 8.377-.832 8.377-6.015zm1.257 19.832c0-5.717-5.087-6.789-9.635-6.789s-9.635 1.072-9.635 6.789c0 4.348 3.71 6.134 9.635 6.134s9.635-1.786 9.635-6.134zm-27.529.537c0-6.195 3.112-9.709 6.524-11.077-2.992-1.489-5.326-5.003-5.326-9.827 0-9.647 7.84-12.922 16.696-12.922 8.856 0 16.697 3.275 16.697 12.922 0 4.824-2.334 8.338-5.326 9.827 3.41 1.368 6.522 4.882 6.522 11.077 0 8.514-5.745 13.34-17.893 13.34s-17.894-4.826-17.894-13.34"/><path d="M94.791 9.5c-24.763 0-49.098 4.12-70.371 11.912-1.337.49-2.49 1.75-3.084 3.37C13.62 45.832 9.542 69.884 9.542 94.334c0 24.451 4.078 48.502 11.795 69.556.593 1.618 1.745 2.877 3.083 3.368 21.273 7.793 45.607 11.912 70.371 11.912 24.766 0 49.101-4.12 70.372-11.912 1.337-.49 2.489-1.75 3.082-3.368 7.718-21.054 11.796-45.105 11.796-69.556 0-24.45-4.078-48.502-11.796-69.554-.593-1.62-1.745-2.878-3.082-3.369C143.889 13.62 119.555 9.5 94.79 9.5zm0 179.167c-25.877 0-51.35-4.323-73.668-12.498-3.995-1.464-7.184-4.753-8.75-9.025C4.278 145.06 0 119.884 0 94.335c0-25.548 4.279-50.724 12.372-72.808 1.567-4.272 4.757-7.562 8.75-9.026C43.443 4.327 68.916.005 94.793.005c25.875 0 51.35 4.322 73.667 12.496 3.996 1.464 7.185 4.754 8.75 9.026 8.095 22.084 12.374 47.26 12.374 72.808 0 25.549-4.279 50.726-12.372 72.809-1.567 4.272-4.756 7.561-8.752 9.025-22.315 8.175-47.79 12.496-73.668 12.498M215.185 29.273h18.235v5.02h-11.799v7.472h9.336v4.824h-9.336v10.95h-6.436V29.273m28.875 17.434h7.508l-3.735-12.215zm-.04-17.434h8.383l9.216 28.266h-6.714l-1.946-6.286h-10.29l-1.946 6.286h-6.039l9.336-28.266m19.815 14.311v-.316c0-8.58 6.037-14.43 14.102-14.43 6.832 0 11.918 3.32 12.592 10.278h-6.593c-.477-3.399-2.384-5.217-5.96-5.217-4.488 0-7.348 3.478-7.348 9.329v.316c0 5.852 2.7 9.25 7.388 9.25 3.536 0 6-1.778 6.516-5.415h6.316c-.716 6.997-5.761 10.596-12.752 10.596-9.296 0-14.261-5.694-14.261-14.391M296.4 29.273h18.513v4.982h-12.117v6.602h9.693v4.664h-9.693v7.038h12.752v4.98H296.4V29.273m35.707 23.839c3.178 0 4.608-1.424 4.608-3.993v-.159c0-2.61-1.43-3.952-4.926-3.952h-4.092v8.104zm-.556-12.216c3.098 0 4.329-1.108 4.329-3.637V37.1c0-2.373-1.35-3.44-4.37-3.44h-3.813v7.235zM321.42 29.273h11.163c6.198 0 9.416 2.53 9.416 7.354v.158c0 2.964-1.431 5.139-4.61 6.048 3.696.751 5.682 2.846 5.682 6.64v.159c0 5.18-3.416 7.907-9.971 7.907h-11.68V29.273m48.616 14.232v-.317c0-5.495-2.94-9.25-7.905-9.25-4.927 0-7.906 3.598-7.906 9.29v.316c0 5.772 3.336 9.33 7.986 9.33 4.806 0 7.825-3.677 7.825-9.369zm-22.525.079v-.316c0-8.42 6.198-14.39 14.62-14.39 8.541 0 14.618 5.733 14.618 14.231v.318c0 8.42-5.8 14.548-14.658 14.548-8.899 0-14.58-6.128-14.58-14.391m56.321-.079v-.317c0-5.495-2.94-9.25-7.905-9.25-4.926 0-7.906 3.598-7.906 9.29v.316c0 5.772 3.338 9.33 7.986 9.33 4.806 0 7.825-3.677 7.825-9.369zm-22.524.079v-.316c0-8.42 6.196-14.39 14.619-14.39 8.541 0 14.62 5.733 14.62 14.231v.318c0 8.42-5.802 14.548-14.66 14.548-8.899 0-14.579-6.128-14.579-14.391m35.267-14.311h6.436V41.45l9.932-12.216h6.832l-11.242 13.402 11.799 14.904h-7.51l-9.811-12.69v12.69h-6.436V29.273M224.244 98.666c5.72 0 8.421-3.202 8.421-9.053v-.317c0-5.81-2.502-8.933-8.501-8.933h-2.543v18.303zm-9.059-23.285h9.296c9.972 0 14.898 5.376 14.898 13.837v.316c0 8.46-4.966 14.113-14.938 14.113h-9.256V75.38m30.223 0h18.512v4.983h-12.116v6.601h9.693v4.665h-9.693v7.037h12.752v4.98h-19.148V75.382m22.716-.002h6.792l6.755 21.705 6.753-21.704h6.039l-9.456 28.266h-7.388l-9.495-28.266m31.533-.001h18.512v4.983h-12.116v6.601h9.694v4.665h-9.694v7.037h12.752v4.98h-19.148V75.382m25.019-.002h6.436v23.246h11.561v5.02h-17.997V75.382m43.694 14.231v-.317c0-5.494-2.94-9.25-7.906-9.25-4.925 0-7.905 3.597-7.905 9.29v.316c0 5.772 3.336 9.33 7.985 9.33 4.807 0 7.825-3.677 7.825-9.37zm-22.525.079v-.317c0-8.42 6.196-14.389 14.619-14.389 8.541 0 14.619 5.732 14.619 14.232v.316c0 8.42-5.8 14.548-14.659 14.548-8.899 0-14.579-6.128-14.579-14.39m44.919-.79c3.139 0 4.808-1.504 4.808-4.31v-.158c0-3.005-1.75-4.19-4.808-4.19h-3.257v8.658zm-9.653-13.521h9.813c6.912 0 10.844 3.044 10.844 9.014v.157c0 5.97-4.17 8.817-10.645 8.817h-3.616v10.278h-6.396V75.38m26.252 0h18.512v4.983h-12.116v6.601h9.693v4.665h-9.693v7.037h12.752v4.98h-19.148V75.382m35.03 13.005c3.219 0 4.847-1.343 4.847-4.072v-.157c0-2.887-1.748-3.875-4.847-3.875h-3.614v8.104zm-10.01-13.006h10.169c6.713 0 10.965 2.728 10.965 8.578v.159c0 4.269-2.502 6.523-5.84 7.51l7.508 12.019h-6.833l-6.792-10.91h-2.781v10.91h-6.396V75.38M213.716 135.8v-.317c0-8.579 6.039-14.429 14.104-14.429 6.832 0 11.916 3.32 12.592 10.278h-6.595c-.477-3.4-2.384-5.218-5.958-5.218-4.488 0-7.35 3.48-7.35 9.33v.316c0 5.85 2.702 9.25 7.39 9.25 3.534 0 5.997-1.778 6.514-5.415h6.316c-.714 6.997-5.76 10.595-12.752 10.595-9.296 0-14.261-5.693-14.261-14.39m53.62-.08v-.316c0-5.495-2.94-9.25-7.905-9.25-4.926 0-7.906 3.597-7.906 9.29v.316c0 5.772 3.338 9.33 7.986 9.33 4.806 0 7.825-3.676 7.825-9.37zm-22.524.08v-.317c0-8.42 6.196-14.39 14.619-14.39 8.541 0 14.62 5.733 14.62 14.232v.316c0 8.42-5.802 14.549-14.66 14.549-8.899 0-14.579-6.129-14.579-14.39m35.265-14.312h7.47l10.805 18.621v-18.621h5.721v28.267h-6.436L285.8 129.633v20.122h-5.722v-28.267m31.494 0h18.235v5.02h-11.799v7.473h9.336v4.823h-9.336v10.95h-6.436v-28.266m23.907 0h18.512v4.982h-12.116v6.602h9.693v4.664h-9.693v7.037h12.752v4.982h-19.148v-28.267m35.031 13.007c3.218 0 4.846-1.343 4.846-4.072v-.158c0-2.886-1.748-3.874-4.847-3.874h-3.614v8.104zm-10.011-13.007h10.169c6.715 0 10.965 2.729 10.965 8.58v.157c0 4.27-2.502 6.523-5.84 7.511l7.508 12.019h-6.833l-6.793-10.911h-2.78v10.91h-6.396v-28.266m28.076 0h18.513v4.982h-12.116v6.602h9.693v4.664h-9.693v7.037h12.752v4.982h-19.15v-28.267m25.022 0h7.47l10.805 18.621v-18.621h5.72v28.267h-6.436l-11.839-20.122v20.122h-5.72v-28.267M443.62 135.8v-.317c0-8.579 6.039-14.429 14.103-14.429 6.832 0 11.917 3.32 12.593 10.278h-6.595c-.477-3.4-2.384-5.218-5.958-5.218-4.49 0-7.35 3.48-7.35 9.33v.316c0 5.85 2.702 9.25 7.388 9.25 3.536 0 5.999-1.778 6.516-5.415h6.316c-.714 6.997-5.76 10.595-12.752 10.595-9.296 0-14.261-5.693-14.261-14.39m32.565-14.312h18.512v4.982h-12.116v6.602h9.694v4.664h-9.694v7.037h12.752v4.982h-19.148v-28.267"/></g></svg>